<?xml version="1.0" encoding="utf-8"?>
<!-- Generator: Adobe Illustrator 18.0.0, SVG Export Plug-In . SVG Version: 6.00 Build 0)  -->
<!DOCTYPE svg PUBLIC "-//W3C//DTD SVG 1.1//EN" "http://www.w3.org/Graphics/SVG/1.1/DTD/svg11.dtd">
<svg version="1.1"
	 id="Layer_1" xmlns:svg="http://www.w3.org/2000/svg" xmlns:cc="http://creativecommons.org/ns#" xmlns:dc="http://purl.org/dc/elements/1.1/" xmlns:inkscape="http://www.inkscape.org/namespaces/inkscape" xmlns:sodipodi="http://sodipodi.sourceforge.net/DTD/sodipodi-0.dtd" xmlns:rdf="http://www.w3.org/1999/02/22-rdf-syntax-ns#" sodipodi:docname="scikit-learn-logo.svg" inkscape:version="0.48.2 r9819"
	 xmlns="http://www.w3.org/2000/svg" xmlns:xlink="http://www.w3.org/1999/xlink" x="0px" y="0px"
	 viewBox="120.6 220.3 671.4 391.7" enable-background="new 120.6 220.3 671.4 391.7" xml:space="preserve">
<sodipodi:namedview  borderopacity="1" id="namedview31" bordercolor="#666666" pagecolor="#ffffff" inkscape:cy="330.56501" inkscape:cx="276.47817" showgrid="false" inkscape:zoom="2.1814013" guidetolerance="10" gridtolerance="10" objecttolerance="10" inkscape:current-layer="Layer_1" inkscape:window-maximized="0" inkscape:window-y="247" inkscape:window-x="246" inkscape:window-height="958" inkscape:window-width="1019" inkscape:pageshadow="2" inkscape:pageopacity="0">
	</sodipodi:namedview>
<g id="g3">
	<path id="path5" fill="#F89939" d="M486.7,485.1c33.9-33.9,39.5-83.1,12.6-110.1c-26.9-26.9-76.2-21.3-110.1,12.6
		c-33.9,33.9-24.1,98.6-12.6,110.1C385.9,506.9,452.8,518.9,486.7,485.1z"/>
	<path id="path7" fill="#3499CD" d="M347.7,436.1c-19.6-19.6-48.2-22.9-63.9-7.3c-15.6,15.6-12.4,44.2,7.3,63.9
		c19.7,19.7,57.2,14,63.9,7.3C360.4,494.6,367.3,455.8,347.7,436.1z"/>
</g>
<g id="g9">
	<g id="g11">
		<path id="path13" fill="#010101" d="M415.5,462.8c-3.5,3.2-6.5,5.6-9.1,7.1c-2.6,1.5-5.1,2.3-7.5,2.3c-2.7,0-4.9-1.1-6.6-3.2
			c-1.7-2.1-2.5-5-2.5-8.5c0-5.4,1.2-11.8,3.5-19.3c2.3-7.5,5.1-14.4,8.5-20.8l9.7-3.6c0.3-0.1,0.5-0.2,0.7-0.2
			c0.7,0,1.3,0.5,1.8,1.6c0.5,1.1,0.7,2.5,0.7,4.4c0,5.2-1.2,10.3-3.6,15.1c-2.4,4.9-6.2,10.1-11.3,15.6c-0.2,2.7-0.3,4.5-0.3,5.5
			c0,2.2,0.4,4,1.2,5.3c0.8,1.3,1.9,2,3.3,2c1.4,0,2.8-0.5,4.4-1.5c1.6-1,3.9-3.1,7.1-6.2L415.5,462.8L415.5,462.8z M400.8,447.8
			c3.2-3.6,5.9-7.6,7.9-12.1c2-4.5,3-8.3,3-11.5c0-0.9-0.1-1.7-0.4-2.3c-0.3-0.6-0.6-0.9-1.1-0.9c-0.9,0-2.3,2.4-4.1,7.1
			C404.3,432.7,402.5,439.3,400.8,447.8z"/>
		<path id="path15" fill="#010101" d="M444.1,462.8c-3.2,3.2-6.2,5.6-8.7,7.1c-2.6,1.5-5.4,2.3-8.5,2.3c-3.5,0-6.3-1.1-8.4-3.3
			c-2.1-2.2-3.2-5.1-3.2-8.8c0-5.4,1.9-10.3,5.6-14.7c3.8-4.4,7.9-6.6,12.5-6.6c2.4,0,4.3,0.6,5.7,1.8c1.4,1.2,2.1,2.8,2.1,4.8
			c0,5.3-5.6,9.6-16.9,12.9c1,5,3.7,7.5,8,7.5c1.7,0,3.3-0.5,4.8-1.4c1.5-0.9,3.8-2.9,6.9-6L444.1,462.8L444.1,462.8z M424.1,455.7
			c6.5-1.8,9.8-5.2,9.8-10.2c0-2.5-0.9-3.7-2.7-3.7c-1.7,0-3.3,1.3-4.8,3.9C424.8,448.2,424.1,451.6,424.1,455.7z"/>
		<path id="path17" fill="#010101" d="M485,462.8c-4.1,3.9-7,6.4-8.8,7.6c-1.8,1.2-3.4,1.8-5.1,1.8c-4,0-5.9-3.6-5.7-10.7
			c-2.6,3.6-4.9,6.3-7.1,8.1c-2.2,1.7-4.4,2.6-6.7,2.6c-2.2,0-4.2-1.1-5.7-3.2s-2.4-4.7-2.4-7.8c0-3.8,1.1-7.5,3.2-11
			c2.1-3.5,4.8-6.3,8.1-8.4s6.2-3.2,8.7-3.2c3.2,0,5.4,1.5,6.7,4.4l7.8-4.3h2.1l-3.4,11.2c-1.7,5.6-2.6,9.5-2.6,11.6
			c0,2.2,0.8,3.3,2.3,3.3c1,0,2.1-0.5,3.3-1.6s2.9-2.7,5.1-4.8L485,462.8L485,462.8z M457,464.9c2.6,0,5-2.2,7.2-6.5
			c2.3-4.4,3.4-8.4,3.4-12c0-1.4-0.3-2.5-1-3.4c-0.6-0.8-1.5-1.2-2.6-1.2c-2.6,0-5,2.2-7.3,6.5c-2.3,4.3-3.4,8.3-3.4,12
			c0,1.4,0.3,2.5,1,3.4S455.9,464.9,457,464.9z"/>
		<path id="path19" fill="#010101" d="M513.6,462.8c-6.4,6.3-11.4,9.4-14.8,9.4c-1.6,0-2.9-0.7-3.9-2c-1.1-1.3-1.6-2.9-1.6-4.9
			c0-3.6,1.9-8.4,5.8-14.5c-1.9,1-4,1.6-6.2,2c-1.7,3.1-4.3,6.4-7.8,9.9h-0.9v-3.4c2-2.1,3.8-4.3,5.4-6.7c-2.2-1-3.3-2.4-3.3-4.3
			c0-2,0.7-4.1,2-6.3c1.3-2.2,3.2-3.3,5.5-3.3c2,0,3,1,3,3.1c0,1.6-0.6,3.9-1.7,6.9c4.2-0.5,7.9-3.7,11.1-9.7l3.5-0.2l-3.6,9.8
			c-1.5,4.1-2.4,7-2.9,8.4s-0.7,2.8-0.7,4c0,1.1,0.2,1.9,0.7,2.6c0.5,0.6,1.2,1,2,1c0.9,0,1.8-0.3,2.6-0.9c0.8-0.6,2.7-2.4,5.7-5.2
			L513.6,462.8L513.6,462.8z"/>
		<path id="path21" fill="#010101" d="M551.3,462.8c-5.9,6.2-11,9.3-15.2,9.3c-1.7,0-3.1-0.6-4.1-1.8c-1-1.2-1.6-2.8-1.6-4.8
			c0-2.7,1.1-6.9,3.4-12.5c1.2-3,1.8-4.9,1.8-5.7c0-0.8-0.3-1.2-1-1.2c-0.4,0-0.8,0.2-1.4,0.5c-0.5,0.4-1.2,0.9-1.9,1.5
			c-0.6,0.6-1.4,1.3-2.1,2.1c-0.7,0.7-1.4,1.5-2.2,2.5l-2.1,2.5c-0.9,1.1-1.5,2.4-1.8,3.6c-0.4,2.2-0.6,4.2-0.8,6
			c-0.1,1.4-0.1,3.2-0.1,5.5l-8.5,2c-0.3-3.4-0.4-6-0.4-7.7c0-4.1,0.5-8,1.4-11.7c1-3.7,2.5-7.8,4.6-12.4l9.3-1.8
			c-2,5.3-3.3,9.4-3.9,12.5c4.2-4.7,7.5-7.9,10-9.7c2.5-1.8,4.6-2.7,6.6-2.7c1.3,0,2.4,0.5,3.2,1.5c0.9,1,1.3,2.2,1.3,3.7
			c0,2.4-1.1,6.5-3.3,12.1c-1.5,3.9-2.3,6.4-2.3,7.5c0,1.5,0.6,2.3,1.9,2.3c1.9,0,4.9-2.5,9.1-7.4V462.8z"/>
	</g>
</g>
<rect id="rect23" x="427.3" y="423.3" fill="none" width="225.2" height="83.9"/>
<text id="text25" transform="matrix(1 0 0 1 427.2742 429.9249)" fill="#FFFFFF" font-family="'Helvetica'" font-size="23.0795">scikit</text>
<rect id="rect27" x="345.6" y="358" fill="none" width="327.4" height="43"/>
<text id="text29" transform="matrix(1 0 0 1 386.7398 494.2799)" fill="#010101" font-family="'Verdana'" font-size="23.0795">contrib</text>
</svg>
